<?xml version="1.0" encoding="UTF-8" standalone="no"?>
<svg
   width="24px"
   height="24px"
   stroke-width="1.5"
   viewBox="0 0 24 24"
   fill="none"
   color="#000000"
   version="1.1"
   id="svg1226"
   sodipodi:docname="sound-off.svg"
   inkscape:version="1.2.2 (732a01da63, 2022-12-09)"
   xmlns:inkscape="http://www.inkscape.org/namespaces/inkscape"
   xmlns:sodipodi="http://sodipodi.sourceforge.net/DTD/sodipodi-0.dtd"
   xmlns="http://www.w3.org/2000/svg"
   xmlns:svg="http://www.w3.org/2000/svg">
  <defs
     id="defs1230" />
  <sodipodi:namedview
     id="namedview1228"
     pagecolor="#505050"
     bordercolor="#eeeeee"
     borderopacity="1"
     inkscape:showpageshadow="0"
     inkscape:pageopacity="0"
     inkscape:pagecheckerboard="0"
     inkscape:deskcolor="#505050"
     showgrid="false"
     inkscape:zoom="36.541667"
     inkscape:cx="12"
     inkscape:cy="12.013683"
     inkscape:window-width="1920"
     inkscape:window-height="1057"
     inkscape:window-x="-8"
     inkscape:window-y="-8"
     inkscape:window-maximized="1"
     inkscape:current-layer="svg1226" />
  <path
     d="M17 14l2-2m2-2l-2 2m0 0l-2-2m2 2l2 2"
     stroke="#000000"
     stroke-width="1.5"
     stroke-linecap="round"
     stroke-linejoin="round"
     id="path1222"
     style="stroke:#ffffff;stroke-opacity:1;stroke-width:2.3;stroke-dasharray:none" />
  <path
     d="M3 14v-4a1 1 0 011-1h2.697a1 1 0 00.555-.168l4.193-2.796A1 1 0 0113 6.87V17.13a1 1 0 01-1.555.832l-4.193-2.795A1 1 0 006.697 15H4a1 1 0 01-1-1z"
     stroke="#000000"
     stroke-width="1.5"
     id="path1224"
     style="stroke:#ffffff;stroke-opacity:1;stroke-width:2.3;stroke-dasharray:none" />
</svg>
